<svg width="204" height="81" viewBox="0 0 204 81" fill="none" xmlns="http://www.w3.org/2000/svg">
<rect x="0.588864" y="39.796" width="198.611" height="41.1291" rx="20.5" transform="rotate(-11.3853 0.588864 39.796)" fill="#A855F7" fill-opacity="0.2"/>
<rect x="0.588864" y="39.796" width="198.611" height="41.1291" rx="20.5" transform="rotate(-11.3853 0.588864 39.796)" stroke="#A855F7"/>
<path d="M22.9169 62.6619L22.8185 62.6817C22.7953 62.9729 22.7236 63.2602 22.6033 63.5437C22.4804 63.814 22.3128 64.066 22.1007 64.2997C21.899 64.5177 21.6501 64.7042 21.3539 64.8594C21.0735 65.025 20.7694 65.1408 20.4416 65.2068C19.1305 65.4708 18.0482 65.2113 17.1947 64.4281C16.3386 63.6319 15.7336 62.3553 15.3798 60.5984C15.0261 58.8415 15.0911 57.4369 15.5749 56.3845C16.0588 55.332 16.9563 54.6738 18.2674 54.4098C18.9361 54.2751 19.563 54.3399 20.1483 54.604C20.7467 54.8655 21.176 55.2702 21.4364 55.8181L21.5348 55.7983L20.3348 49.8393L23.2455 49.2531L26.1761 63.8065L23.2654 64.3926L22.9169 62.6619ZM20.93 62.6527C21.4807 62.5419 21.9066 62.3197 22.2078 61.9862C22.5195 61.6369 22.6278 61.2263 22.5327 60.7543L21.9189 57.7059C21.8239 57.2339 21.5664 56.9038 21.1465 56.7155C20.737 56.5114 20.257 56.4649 19.7063 56.5757C19.1556 56.6866 18.7363 56.9757 18.4484 57.443C18.171 57.8945 18.0983 58.448 18.2303 59.1036L18.5907 60.8932C18.7227 61.5488 19.0053 62.0376 19.4385 62.3596C19.8822 62.6659 20.3793 62.7636 20.93 62.6527ZM33.2524 62.6271C32.4658 62.7855 31.7392 62.8022 31.0728 62.6772C30.4038 62.539 29.8068 62.2841 29.2817 61.9123C28.7671 61.5248 28.331 61.0192 27.9735 60.3954C27.6291 59.769 27.3737 59.0427 27.2073 58.2167C27.0437 57.4039 27.0007 56.6485 27.0785 55.9507C27.1536 55.2398 27.3469 54.6074 27.6583 54.0536C27.9828 53.4971 28.4215 53.0336 28.9744 52.663C29.5248 52.2793 30.1867 52.0096 30.9602 51.8539C31.8125 51.6822 32.5692 51.6799 33.2304 51.8469C33.9047 52.0113 34.4808 52.2977 34.9587 52.7063C35.4497 53.1122 35.8451 53.6192 36.1449 54.2273C36.4552 54.8197 36.6803 55.4633 36.8203 56.1582L36.9945 57.0236L30.3668 58.3582L30.3985 58.5155C30.5358 59.1973 30.8289 59.7044 31.2779 60.0369C31.7242 60.3564 32.3407 60.4369 33.1274 60.2784C33.7305 60.157 34.1984 59.94 34.5311 59.6274C34.8611 59.3017 35.1557 58.9355 35.4149 58.5286L37.2345 60.0448C36.8839 60.6748 36.3653 61.2158 35.6787 61.6679C35.0052 62.1173 34.1964 62.437 33.2524 62.6271ZM31.4509 53.9856C30.8609 54.1044 30.4351 54.3948 30.1734 54.8568C29.9222 55.303 29.8612 55.8474 29.9906 56.4898L30.0223 56.6472L33.641 55.9185L33.6053 55.7415C33.4786 55.1121 33.2327 54.6364 32.8677 54.3143C32.5132 53.9764 32.0409 53.8668 31.4509 53.9856ZM47.5719 59.498C47.0474 59.6037 46.5752 59.5282 46.1552 59.2717C45.7483 59.0126 45.4435 58.6169 45.2409 58.0847L45.1229 58.1085C45.1002 58.8088 44.8557 59.3901 44.3894 59.8524C43.9205 60.3015 43.2927 60.6053 42.5061 60.7637C41.4703 60.9723 40.6216 60.8567 39.9601 60.4169C39.2985 59.9771 38.8766 59.3049 38.6945 58.4002C38.4753 57.312 38.7063 56.4265 39.3874 55.7436C40.0789 55.045 41.1064 54.5584 42.47 54.2838L44.1023 53.9551L43.9716 53.3061C43.8713 52.8079 43.661 52.441 43.3407 52.2053C43.0177 51.9566 42.5482 51.8943 41.9319 52.0183C41.355 52.1345 40.9212 52.3515 40.6305 52.6692C40.3398 52.987 40.1147 53.3256 39.9551 53.6852L37.9156 52.4997C38.211 51.799 38.6391 51.2148 39.1998 50.7472C39.771 50.2638 40.6007 49.9126 41.6889 49.6934C43.1573 49.3977 44.3233 49.4972 45.1869 49.9918C46.0505 50.4864 46.6064 51.3499 46.8546 52.5824L47.7654 57.1057L48.7291 56.9116L49.1845 59.1733L47.5719 59.498ZM43.1798 58.5202C43.6649 58.4225 44.0568 58.2345 44.3555 57.9561C44.6672 57.675 44.7756 57.2985 44.6805 56.8265L44.435 55.6071L43.019 55.8923C41.8783 56.122 41.3859 56.6236 41.5416 57.3972L41.601 57.6922C41.6776 58.0724 41.8524 58.3305 42.1253 58.4665C42.3957 58.5895 42.7472 58.6074 43.1798 58.5202ZM57.1223 55.774L57.024 55.7938C57.0008 56.085 56.929 56.3723 56.8087 56.6558C56.6858 56.9261 56.5183 57.1781 56.3061 57.4118C56.1044 57.6298 55.8555 57.8163 55.5593 57.9715C55.2789 58.1371 54.9748 58.2529 54.647 58.3189C53.3359 58.5829 52.2536 58.3234 51.4001 57.5402C50.544 56.744 49.939 55.4674 49.5853 53.7105C49.2315 51.9536 49.2965 50.549 49.7804 49.4966C50.2642 48.4441 51.1617 47.7859 52.4728 47.5219C53.1415 47.3872 53.7685 47.452 54.3537 47.7161C54.9521 47.9776 55.3815 48.3823 55.6419 48.9302L55.7402 48.9104L54.5402 42.9514L57.4509 42.3652L60.3815 56.9186L57.4708 57.5047L57.1223 55.774ZM55.1354 55.7649C55.6861 55.654 56.112 55.4318 56.4132 55.0983C56.7249 54.749 56.8332 54.3384 56.7382 53.8664L56.1243 50.818C56.0293 50.346 55.7718 50.0159 55.3519 49.8276C54.9424 49.6235 54.4624 49.577 53.9117 49.6878C53.3611 49.7987 52.9418 50.0878 52.6539 50.5551C52.3764 51.0066 52.3037 51.5601 52.4357 52.2157L52.7961 54.0053C52.9281 54.6609 53.2107 55.1497 53.6439 55.4717C54.0876 55.778 54.5848 55.8757 55.1354 55.7649ZM65.9943 55.7883C64.9979 55.989 64.2148 55.8943 63.6451 55.5042C63.0886 55.1115 62.7179 54.4563 62.5331 53.5385L60.1727 41.8172L63.0834 41.231L65.5586 53.5227L66.8566 53.2613L67.312 55.523L65.9943 55.7883ZM68.2115 43.4522C67.6215 43.571 67.1625 43.527 66.8343 43.3202C66.5167 43.0977 66.3156 42.7767 66.2311 42.3571L66.144 41.9244C66.0595 41.5049 66.122 41.1376 66.3314 40.8226C66.5513 40.4918 66.9562 40.267 67.5462 40.1482C68.1362 40.0294 68.59 40.0812 68.9077 40.3038C69.2359 40.5106 69.4422 40.8237 69.5266 41.2433L69.6138 41.6759C69.6983 42.0955 69.6306 42.4707 69.4107 42.8014C69.2012 43.1165 68.8015 43.3334 68.2115 43.4522ZM66.978 44.8466L69.8886 44.2605L71.9678 54.5855L69.0571 55.1716L66.978 44.8466ZM74.6844 54.0384L72.6053 43.7134L75.5159 43.1273L75.8684 44.8776L75.9864 44.8539C76.0617 44.2794 76.2892 43.7492 76.6689 43.2635C77.0486 42.7778 77.6449 42.453 78.4577 42.2894C79.5197 42.0755 80.3908 42.2684 81.0709 42.8682C81.7642 43.4653 82.2428 44.4194 82.5068 45.7305L83.8097 52.2009L80.8991 52.787L79.6437 46.5527C79.509 45.884 79.3051 45.4134 79.032 45.141C78.7562 44.8555 78.3495 44.7668 77.812 44.8751C77.576 44.9226 77.3531 45.0016 77.1434 45.112C76.9311 45.2094 76.7464 45.3421 76.5892 45.5101C76.4452 45.6756 76.3405 45.8672 76.2752 46.085C76.2073 46.2896 76.1984 46.5165 76.2486 46.7656L77.5951 53.4523L74.6844 54.0384ZM90.7544 51.048C89.9678 51.2064 89.2412 51.2231 88.5748 51.0981C87.9058 50.96 87.3088 50.705 86.7837 50.3332C86.2691 49.9457 85.833 49.4401 85.4755 48.8163C85.1311 48.1899 84.8757 47.4637 84.7093 46.6377C84.5457 45.8248 84.5027 45.0694 84.5805 44.3716C84.6556 43.6607 84.8489 43.0283 85.1603 42.4745C85.4848 41.918 85.9235 41.4545 86.4764 41.0839C87.0268 40.7002 87.6887 40.4305 88.4622 40.2748C89.3145 40.1031 90.0712 40.1008 90.7324 40.2678C91.4067 40.4322 91.9828 40.7186 92.4607 41.1272C92.9517 41.5331 93.3471 42.0401 93.6469 42.6482C93.9572 43.2406 94.1823 43.8842 94.3223 44.5791L94.4965 45.4445L87.8688 46.7791L87.9005 46.9364C88.0378 47.6182 88.3309 48.1253 88.7799 48.4578C89.2262 48.7773 89.8427 48.8578 90.6294 48.6993C91.2325 48.5779 91.7004 48.3609 92.0331 48.0483C92.3631 47.7227 92.6577 47.3564 92.9169 46.9495L94.7366 48.4657C94.3859 49.0957 93.8673 49.6367 93.1807 50.0888C92.5072 50.5382 91.6984 50.8579 90.7544 51.048ZM88.9529 42.4065C88.3629 42.5254 87.9371 42.8157 87.6754 43.2777C87.4242 43.724 87.3632 44.2683 87.4926 44.9107L87.5243 45.0681L91.143 44.3394L91.1073 44.1624C90.9806 43.533 90.7347 43.0573 90.3697 42.7352C90.0152 42.3973 89.5429 42.2877 88.9529 42.4065ZM105.71 47.7909C104.7 47.9942 103.882 47.893 103.254 47.4873C102.64 47.0789 102.234 46.3831 102.036 45.3997L101.018 40.3454L99.5626 40.6384L99.1072 38.3768L99.8349 38.2302C100.228 38.151 100.478 38.0051 100.586 37.7925C100.69 37.5668 100.707 37.277 100.636 36.923L100.295 35.2316L102.911 34.7049L103.473 37.4976L105.519 37.0857L105.974 39.3474L103.929 39.7593L105.097 45.5609L106.985 45.1808L107.44 47.4424L105.71 47.7909ZM113.779 46.4115C113.019 46.5646 112.312 46.5774 111.659 46.4497C111.019 46.3194 110.441 46.0605 109.927 45.673C109.425 45.2828 108.996 44.7759 108.638 44.1521C108.281 43.5283 108.019 42.8034 107.852 41.9774C107.686 41.1514 107.647 40.3816 107.735 39.6681C107.823 38.9545 108.025 38.3274 108.339 37.7866C108.663 37.2302 109.095 36.768 109.635 36.4C110.188 36.0295 110.845 35.7676 111.605 35.6145C112.366 35.4614 113.066 35.45 113.706 35.5803C114.359 35.7079 114.937 35.9668 115.438 36.357C115.95 36.7314 116.385 37.2305 116.742 37.8543C117.1 38.4781 117.362 39.2029 117.528 40.0289C117.695 40.855 117.734 41.6247 117.645 42.3383C117.557 43.0518 117.351 43.6868 117.026 44.2433C116.715 44.7972 116.283 45.2594 115.73 45.6299C115.19 45.9979 114.54 46.2584 113.779 46.4115ZM113.316 44.1105C113.893 43.9943 114.303 43.7276 114.546 43.3102C114.79 42.8928 114.845 42.3564 114.713 41.7008L114.29 39.5965C114.158 38.9409 113.899 38.4678 113.513 38.1772C113.127 37.8866 112.645 37.7993 112.069 37.9155C111.492 38.0317 111.081 38.2984 110.838 38.7158C110.595 39.1332 110.539 39.6696 110.671 40.3252L111.095 42.4295C111.227 43.0851 111.486 43.5582 111.872 43.8488C112.258 44.1394 112.739 44.2267 113.316 44.1105ZM120.644 44.7837L118.565 34.4587L121.475 33.8725L121.828 35.6229L121.946 35.5991C122.018 35.0115 122.239 34.4827 122.609 34.0127C122.975 33.5296 123.545 33.2102 124.319 33.0544C125.027 32.9118 125.666 32.9674 126.235 33.221C126.805 33.4747 127.269 33.92 127.63 34.5569L127.689 34.545C127.722 34.2381 127.806 33.9416 127.939 33.6555C128.083 33.3537 128.274 33.0833 128.513 32.8443C128.751 32.6053 129.03 32.399 129.35 32.2255C129.667 32.0388 130.022 31.9059 130.415 31.8267C131.412 31.6261 132.244 31.8269 132.911 32.4293C133.591 33.0291 134.063 33.9845 134.327 35.2956L135.63 41.766L132.719 42.3521L131.464 36.1177C131.2 34.8066 130.596 34.2461 129.652 34.4362C129.219 34.5233 128.851 34.7271 128.547 35.0475C128.243 35.3679 128.143 35.7837 128.246 36.2951L129.592 42.9818L126.681 43.5679L125.426 37.3335C125.162 36.0224 124.558 35.4619 123.614 35.652C123.404 35.6942 123.201 35.7693 123.004 35.8771C122.818 35.9691 122.653 36.0978 122.509 36.2633C122.378 36.4261 122.28 36.6164 122.215 36.8342C122.16 37.0362 122.158 37.2618 122.208 37.5109L123.554 44.1975L120.644 44.7837ZM142.454 40.6374C141.693 40.7906 140.986 40.8033 140.333 40.6756C139.693 40.5453 139.115 40.2864 138.601 39.8989C138.099 39.5087 137.67 39.0018 137.312 38.378C136.955 37.7542 136.693 37.0293 136.526 36.2033C136.36 35.3773 136.321 34.6075 136.409 33.894C136.498 33.1804 136.699 32.5533 137.013 32.0126C137.337 31.4561 137.769 30.9939 138.309 30.626C138.862 30.2554 139.519 29.9936 140.279 29.8404C141.04 29.6873 141.74 29.6759 142.38 29.8062C143.034 29.9338 143.611 30.1928 144.112 30.5829C144.624 30.9573 145.059 31.4564 145.417 32.0802C145.774 32.704 146.036 33.4289 146.202 34.2549C146.369 35.0809 146.408 35.8506 146.32 36.5642C146.231 37.2777 146.025 37.9128 145.7 38.4693C145.389 39.0231 144.957 39.4853 144.404 39.8559C143.864 40.2238 143.214 40.4843 142.454 40.6374ZM141.99 38.3364C142.567 38.2203 142.977 37.9535 143.221 37.5361C143.464 37.1188 143.52 36.5823 143.388 35.9268L142.964 33.8224C142.832 33.1669 142.573 32.6938 142.187 32.4031C141.801 32.1125 141.32 32.0253 140.743 32.1414C140.166 32.2576 139.756 32.5244 139.512 32.9417C139.269 33.3591 139.213 33.8955 139.345 34.5511L139.769 36.6554C139.901 37.311 140.16 37.7841 140.546 38.0747C140.932 38.3654 141.413 38.4526 141.99 38.3364ZM149.318 39.0096L147.239 28.6846L150.149 28.0985L150.601 30.3405L150.699 30.3207C150.694 30.0217 150.73 29.7278 150.808 29.4392C150.884 29.1375 151.006 28.8606 151.173 28.6086C151.354 28.3539 151.583 28.1372 151.861 27.9585C152.136 27.7667 152.477 27.6298 152.883 27.548L153.394 27.445L153.941 30.159L153.213 30.3056C152.361 30.4772 151.748 30.7167 151.373 31.024C151.011 31.3288 150.891 31.7827 151.013 32.3858L152.229 38.4235L149.318 39.0096ZM157.269 37.4085L155.19 27.0835L158.101 26.4973L158.552 28.7393L158.65 28.7195C158.645 28.4205 158.681 28.1267 158.759 27.8381C158.835 27.5364 158.957 27.2595 159.124 27.0075C159.305 26.7528 159.534 26.5361 159.812 26.3574C160.087 26.1656 160.428 26.0287 160.834 25.9469L161.346 25.8439L161.892 28.5579L161.164 28.7044C160.312 28.876 159.699 29.1155 159.324 29.4229C158.963 29.7276 158.843 30.1816 158.964 30.7847L160.18 36.8224L157.269 37.4085ZM169.361 35.2192C168.6 35.3723 167.893 35.385 167.24 35.2574C166.6 35.1271 166.023 34.8681 165.508 34.4806C165.007 34.0905 164.577 33.5835 164.22 32.9597C163.862 32.3359 163.6 31.611 163.434 30.785C163.267 29.959 163.228 29.1893 163.317 28.4757C163.405 27.7622 163.606 27.135 163.92 26.5943C164.244 26.0378 164.677 25.5756 165.217 25.2077C165.769 24.8371 166.426 24.5753 167.187 24.4221C167.947 24.269 168.647 24.2576 169.288 24.3879C169.941 24.5156 170.518 24.7745 171.02 25.1646C171.532 25.539 171.966 26.0381 172.324 26.6619C172.681 27.2857 172.943 28.0106 173.11 28.8366C173.276 29.6626 173.315 30.4324 173.227 31.1459C173.139 31.8595 172.932 32.4945 172.608 33.051C172.296 33.6048 171.864 34.067 171.311 34.4376C170.771 34.8055 170.121 35.066 169.361 35.2192ZM168.897 32.9182C169.474 32.802 169.884 32.5352 170.128 32.1179C170.371 31.7005 170.427 31.164 170.295 30.5085L169.871 28.4041C169.739 27.7486 169.48 27.2755 169.094 26.9849C168.708 26.6942 168.227 26.607 167.65 26.7231C167.073 26.8393 166.663 27.1061 166.42 27.5234C166.176 27.9408 166.12 28.4773 166.252 29.1328L166.676 31.2372C166.808 31.8927 167.067 32.3658 167.453 32.6565C167.839 32.9471 168.321 33.0343 168.897 32.9182ZM172.971 23.503L175.783 22.9367L177.626 26.904L178.967 29.9081L179.046 29.8923L179.238 26.5793L179.579 22.1723L182.234 21.6377L184.273 25.5655L185.752 28.5419L185.831 28.526L185.905 25.2368L186.069 20.8655L188.763 20.3229L187.99 31.2222L184.942 31.836L182.804 27.7234L181.538 25.1953L181.479 25.2072L181.31 28.0244L180.93 32.6439L177.941 33.2458L172.971 23.503Z" fill="white"/>
</svg>
